<svg xmlns="http://www.w3.org/2000/svg" xmlns:xlink="http://www.w3.org/1999/xlink" version="1.1" id="Layer_1" x="0px" y="0px" viewBox="0 0 51 43" style="enable-background:new 0 0 51 43;" xml:space="preserve">
<style type="text/css">
	.st0{display:none;}
	.st1{display:inline;fill:#D3D3D3;}
	.st2{fill:#0E1D49;}
	.st3{display:none;clip-path:url(#SVGID_2_);}
	.st4{display:inline;}
	.st5{fill:#221C6B;}
	.st6{clip-path:url(#SVGID_4_);}
	.st7{opacity:0.25;clip-path:url(#SVGID_8_);}
	.st8{fill:#00112D;}
	.st9{opacity:0.6;}
	.st10{fill:#FFFFFF;}
	.st11{clip-path:url(#SVGID_4_);fill:#FFFFFF;}
	.st12{fill:#0BDBA0;}
	.st13{opacity:0.8;clip-path:url(#SVGID_4_);}
	.st14{opacity:0.5;clip-path:url(#SVGID_4_);}
	.st15{opacity:0.7;clip-path:url(#SVGID_4_);}
	.st16{fill:none;stroke:#FFFFFF;stroke-width:2;stroke-miterlimit:10;}

		.st17{opacity:0.4;clip-path:url(#SVGID_4_);fill:none;stroke:#FFFFFF;stroke-miterlimit:10;stroke-dasharray:3,3;enable-background:new    ;}
	.st18{fill:#F6F7FB;}
	.st19{fill:none;}
	.st20{fill:none;stroke:#DAE1E8;stroke-width:1.0016;stroke-miterlimit:10;}
	.st21{opacity:0.7;}
	.st22{fill:#1359BF;}
	.st23{clip-path:url(#SVGID_12_);}
	.st24{fill:#2962FF;}
	.st25{fill:none;stroke:#2962FF;stroke-width:3;stroke-miterlimit:10;}
	.st26{fill:none;stroke:#2962FF;stroke-width:2.9921;stroke-miterlimit:10;}
	.st27{fill:none;stroke:#2962FF;stroke-width:2.9614;stroke-miterlimit:10;}
	.st28{fill:none;stroke:#2962FF;stroke-width:2.9758;stroke-miterlimit:10;}
	.st29{fill:none;stroke:#2962FF;stroke-width:2.8477;stroke-miterlimit:10;}
	.st30{fill:none;stroke:#2962FF;stroke-width:3.3482;stroke-miterlimit:10;}
	.st31{clip-path:url(#SVGID_14_);}
	.st32{fill:none;stroke:#2962FF;stroke-width:2.9214;stroke-miterlimit:10;}
	.st33{fill:none;stroke:#2962FF;stroke-width:2.9658;stroke-miterlimit:10;}
	.st34{fill:none;stroke:#2962FF;stroke-width:2.2508;stroke-linecap:square;stroke-miterlimit:10;}
	.st35{fill:none;stroke:#2962FF;stroke-width:3.0914;stroke-miterlimit:10;}
</style>
<g id="Layer_3" class="st0">
	<rect x="-10" y="-289" class="st1" width="453" height="409"/>

		<image style="display:inline;overflow:visible;enable-background:new    ;" width="1888" height="1704" xlink:href="../sprite.png" transform="matrix(0.2399 0 0 0.24 -10 -289)">
	</image>
</g>
<g>
	<g>
		<g>
			<g id="Layer_2">
				<g>
					<line class="st25" x1="22" y1="23.5" x2="1" y2="23.5"/>
					<line class="st25" x1="49" y1="23.5" x2="29" y2="23.5"/>
					<path class="st25" d="M46.5,41.5h-42c-1.7,0-3-1.3-3-3v-27c0-1.7,1.3-3,3-3h42c1.7,0,3,1.3,3,3v27       C49.5,40.2,48.2,41.5,46.5,41.5z"/>
					<rect x="22.5" y="20.5" class="st25" width="6" height="6"/>
					<path class="st25" d="M16.5,8V3.7c0-1.2,1-2.2,2.2-2.2h13.7c1.2,0,2.2,1,2.2,2.2V8"/>
				</g>
			</g>
		</g>
	</g>
</g>
</svg>
