<svg xmlns="http://www.w3.org/2000/svg" xmlns:xlink="http://www.w3.org/1999/xlink" version="1.1" id="Layer_1" x="0px" y="0px" viewBox="0 0 45 45" style="enable-background:new 0 0 45 45;" xml:space="preserve">
<style type="text/css">
	.st0{display:none;}
	.st1{display:inline;fill:#D3D3D3;}
	.st2{fill:#0E1D49;}
	.st3{display:none;clip-path:url(#SVGID_2_);}
	.st4{display:inline;}
	.st5{fill:#221C6B;}
	.st6{clip-path:url(#SVGID_4_);}
	.st7{opacity:0.25;clip-path:url(#SVGID_8_);}
	.st8{fill:#00112D;}
	.st9{opacity:0.6;}
	.st10{fill:#FFFFFF;}
	.st11{clip-path:url(#SVGID_4_);fill:#FFFFFF;}
	.st12{fill:#0BDBA0;}
	.st13{opacity:0.8;clip-path:url(#SVGID_4_);}
	.st14{opacity:0.5;clip-path:url(#SVGID_4_);}
	.st15{opacity:0.7;clip-path:url(#SVGID_4_);}
	.st16{fill:none;stroke:#FFFFFF;stroke-width:2;stroke-miterlimit:10;}

		.st17{opacity:0.4;clip-path:url(#SVGID_4_);fill:none;stroke:#FFFFFF;stroke-miterlimit:10;stroke-dasharray:3,3;enable-background:new    ;}
	.st18{fill:#F6F7FB;}
	.st19{fill:none;}
	.st20{fill:none;stroke:#DAE1E8;stroke-width:1.0016;stroke-miterlimit:10;}
	.st21{opacity:0.7;}
	.st22{fill:#1359BF;}
	.st23{clip-path:url(#SVGID_12_);}
	.st24{fill:#2962FF;}
	.st25{fill:none;stroke:#2962FF;stroke-width:3;stroke-miterlimit:10;}
	.st26{fill:none;stroke:#2962FF;stroke-width:2.9921;stroke-miterlimit:10;}
	.st27{fill:none;stroke:#2962FF;stroke-width:2.9614;stroke-miterlimit:10;}
	.st28{fill:none;stroke:#2962FF;stroke-width:2.9758;stroke-miterlimit:10;}
	.st29{fill:none;stroke:#2962FF;stroke-width:2.8477;stroke-miterlimit:10;}
	.st30{fill:none;stroke:#2962FF;stroke-width:3.3482;stroke-miterlimit:10;}
	.st31{clip-path:url(#SVGID_14_);}
	.st32{fill:none;stroke:#2962FF;stroke-width:2.9214;stroke-miterlimit:10;}
	.st33{fill:none;stroke:#2962FF;stroke-width:2.9658;stroke-miterlimit:10;}
	.st34{fill:none;stroke:#2962FF;stroke-width:2.2508;stroke-linecap:square;stroke-miterlimit:10;}
	.st35{fill:none;stroke:#2962FF;stroke-width:3.0914;stroke-miterlimit:10;}
</style>
<g id="Layer_3" class="st0">
	<rect x="-125" y="-352" class="st1" width="453" height="409"/>

		<image style="display:inline;overflow:visible;enable-background:new    ;" width="1888" height="1704" xlink:href="../sprite.png" transform="matrix(0.2399 0 0 0.24 -125 -352)">
	</image>
</g>
<g>
	<g>
		<g>
			<g id="Layer_2">
				<g>
					<path class="st25" d="M43.5,1.5c-2.3-0.2-6.2-0.1-10.2,1c-0.1,0-0.3,0.1-0.4,0.1C28,4,24.4,6,21.1,9.9       c-3.1,3.6-8.6,12.6-8.6,12.6l9,9c0,0,10.1-5,13.8-8.1c3.9-3.2,5.9-6.8,7.2-11.6c0-0.1,0.1-0.3,0.1-0.4       C43.6,7.2,43.8,3.7,43.5,1.5z"/>
					<polygon class="st25" points="17,34 9.9,27 12.5,22.5 21.5,31.5      "/>
					<path class="st25" d="M24.5,31.5v10l6.8-7.4c1.4-1.4,2.2-3.4,2.1-5.4L33.1,25L24.5,31.5z"/>
					<path class="st25" d="M13.5,20.5h-10l7.1-7.1C12,12,14,11.2,16,11.3l3.7,0.3L13.5,20.5z"/>
					<ellipse transform="matrix(0.7071 -0.7071 0.7071 0.7071 -1.3198 25.8108)" class="st27" cx="30.5" cy="14.5" rx="3" ry="3"/>
					<g>
						<line class="st25" x1="7.5" y1="31.5" x2="3.5" y2="35.5"/>
						<line class="st25" x1="13.5" y1="37.5" x2="9.5" y2="41.5"/>
						<line class="st25" x1="10.5" y1="34.5" x2="4.5" y2="40.5"/>
					</g>
				</g>
			</g>
		</g>
	</g>
</g>
</svg>
