<svg xmlns="http://www.w3.org/2000/svg" xmlns:xlink="http://www.w3.org/1999/xlink" version="1.1" id="Layer_1" x="0px" y="0px" viewBox="0 0 88 73" style="enable-background:new 0 0 88 73;" xml:space="preserve">
<style type="text/css">
	.st0{display:none;}
	.st1{display:inline;fill:#D3D3D3;}
	.st2{fill:none;stroke:#2962FF;stroke-width:3;stroke-miterlimit:10;}
	.st3{fill:none;stroke:#2962FF;stroke-width:2;stroke-miterlimit:10;}
</style>
<g id="Layer_3" class="st0">
	<rect x="-10" y="-102" class="st1" width="453" height="409"/>

		<image style="display:inline;overflow:visible;enable-background:new    ;" width="1888" height="1704" xlink:href="../sprite.png" transform="matrix(0.2399 0 0 0.24 -10 -102)">
	</image>
</g>
<g>
	<g>
		<g>
			<g id="Layer_2">
				<g>
					<path class="st2" d="M80.6,31V3.7c0-1.2-1-2.2-2.2-2.2H3.8c-1.2,0-2.2,1-2.2,2.2v46.8h46.5 M48.1,50.5H1.6v6.3       c0,1.5,1.2,2.7,2.7,2.7h43.8 M31.5,59.5v8.2c0,0-0.6,1.7-1.5,2.2c-0.5,0.3-1.4,1.3-2.2,1.6l0,0 M26.1,71.5h30"/>
					<path class="st2" d="M72.1,71.5H50.3c-0.9-0.9-1.7-1.6-1.7-2.6V27.2c0-0.9,0.8-1.7,1.7-1.7h28.6c0.9,0,1.7,0.8,1.7,1.7V37"/>
					<polyline class="st2" points="69.1,66.5 53.6,66.5 53.6,30.5 75.6,30.5 75.6,37      "/>
					<path class="st2" d="M86.6,70.5c0,0.6-0.5,1-1.1,1H69.6c-0.6,0-1-0.5-1-1V38.6c0-0.6,0.5-1,1-1h15.9c0.6,0,1,0.5,1,1L86.6,70.5       L86.6,70.5z"/>
					<path class="st3" d="M85,67H69 M69,42h16"/>
				</g>
			</g>
		</g>
	</g>
</g>
</svg>
